<svg width="209" height="46" viewBox="0 0 209 46" fill="none" xmlns="http://www.w3.org/2000/svg">
<g id="Group 4">
<path id="Star 1" d="M22 0L26.9393 15.8926H42.9232L29.992 25.7148L34.9313 41.6074L22 31.7852L9.06872 41.6074L14.008 25.7148L1.07676 15.8926H17.0607L22 0Z" fill="#FFBD59"/>
<path id="Star 2" d="M79 0L83.9393 15.8926H99.9232L86.992 25.7148L91.9313 41.6074L79 31.7852L66.0687 41.6074L71.008 25.7148L58.0768 15.8926H74.0607L79 0Z" fill="#FFBD59"/>
<path id="Star 3" d="M133 0L137.939 15.8926H153.923L140.992 25.7148L145.931 41.6074L133 31.7852L120.069 41.6074L125.008 25.7148L112.077 15.8926H128.061L133 0Z" fill="#FFBD59"/>
<path id="Star 4" d="M187 0L191.939 15.8926H207.923L194.992 25.7148L199.931 41.6074L187 31.7852L174.069 41.6074L179.008 25.7148L166.077 15.8926H182.061L187 0Z" fill="#FFBD59"/>
</g>
</svg>
